<?xml version="1.0" encoding="iso-8859-1"?>
<!-- Uploaded to: SVG Repo, www.svgrepo.com, Generator: SVG Repo Mixer Tools -->
<svg version="1.1" id="Layer_1" xmlns="http://www.w3.org/2000/svg" xmlns:xlink="http://www.w3.org/1999/xlink" 
	 viewBox="0 0 512 512" xml:space="preserve">
<rect x="76.289" y="129.486" style="fill:#E6E6E6;" width="359.423" height="382.514"/>
<polygon style="fill:#CCCCCC;" points="76.288,181.294 112.229,204.906 148.163,181.294 184.102,204.906 220.04,181.294 
	255.983,204.906 291.926,181.294 327.869,204.906 363.814,181.294 399.764,204.906 435.713,181.294 435.713,145.876 76.288,145.876 
	"/>
<polygon style="fill:#E6E6E6;" points="76.288,155.273 112.229,178.884 148.163,155.273 184.102,178.884 220.04,155.273 
	255.983,178.884 291.926,155.273 327.869,178.884 363.814,155.273 399.764,178.884 435.713,155.273 435.713,119.854 76.288,119.854 
	"/>
<path style="fill:#F95428;" d="M342.982,347.782c0-12.609,9.064-26.937,4.517-37.902c-4.713-11.366-21.428-15.038-29.994-23.603
	c-8.566-8.566-12.236-25.28-23.603-29.993c-10.964-4.547-25.292,4.518-37.901,4.518s-26.937-9.064-37.902-4.517
	c-11.366,4.713-15.038,21.428-23.603,29.994c-8.566,8.566-25.28,12.236-29.993,23.603c-4.547,10.964,4.518,25.292,4.518,37.901
	c0,12.609-9.064,26.937-4.517,37.902c4.713,11.366,21.428,15.038,29.994,23.603c8.566,8.566,12.236,25.28,23.603,29.993
	c10.964,4.547,25.292-4.517,37.901-4.517c12.609,0,26.937,9.064,37.902,4.517c11.366-4.713,15.038-21.428,23.603-29.994
	c8.566-8.566,25.28-12.236,29.993-23.603C352.046,374.719,342.982,360.391,342.982,347.782z"/>
<path style="fill:#666666;" d="M225.022,449.579c-3.47,0-6.955-0.543-10.38-1.961c-9.747-4.042-14.851-13.129-19.355-21.145
	c-2.395-4.262-4.657-8.289-7.172-10.804c-2.515-2.515-6.542-4.777-10.804-7.172c-8.018-4.504-17.104-9.609-21.145-19.355
	c-3.897-9.4-1.183-19.267,1.212-27.972c1.346-4.893,2.617-9.514,2.617-13.387c0-3.872-1.272-8.494-2.617-13.387
	c-2.395-8.705-5.109-18.573-1.212-27.972c4.042-9.747,13.128-14.851,21.144-19.355c4.262-2.395,8.289-4.657,10.804-7.172
	s4.777-6.542,7.172-10.804c4.505-8.018,9.609-17.104,19.356-21.145c9.399-3.897,19.266-1.184,27.973,1.212
	c4.893,1.346,9.513,2.617,13.387,2.617c3.873,0,8.494-1.272,13.387-2.617c8.706-2.396,18.576-5.11,27.973-1.212
	c9.745,4.041,14.851,13.127,19.355,21.144c2.395,4.262,4.657,8.288,7.172,10.804c2.516,2.516,6.542,4.778,10.804,7.172
	c8.016,4.505,17.104,9.609,21.144,19.356c3.897,9.4,1.183,19.267-1.212,27.972c-1.346,4.893-2.618,9.514-2.618,13.387
	c0,3.872,1.272,8.494,2.618,13.387c2.395,8.705,5.109,18.572,1.212,27.972c-4.041,9.747-13.128,14.851-21.144,19.356
	c-4.263,2.395-8.289,4.657-10.804,7.172c-2.515,2.515-4.776,6.541-7.17,10.803c-4.505,8.018-9.609,17.104-19.356,21.145
	c-9.401,3.897-19.268,1.183-27.973-1.212c-4.891-1.346-9.513-2.617-13.387-2.617s-8.494,1.272-13.387,2.617
	C237.081,447.928,231.076,449.579,225.022,449.579z M225.082,264.026c-1.331,0-2.521,0.177-3.527,0.594
	c-3.982,1.651-7.164,7.316-10.534,13.313c-2.887,5.139-5.873,10.454-10.145,14.726c-4.273,4.272-9.587,7.258-14.727,10.146
	c-5.997,3.369-11.661,6.552-13.312,10.532c-1.523,3.674,0.16,9.792,1.942,16.27c1.604,5.832,3.263,11.864,3.263,18.174
	c0,6.31-1.659,12.342-3.263,18.174c-1.782,6.477-3.465,12.596-1.942,16.271c1.651,3.98,7.316,7.163,13.312,10.532
	c5.139,2.887,10.454,5.873,14.726,10.145s7.258,9.587,10.145,14.726c3.369,5.997,6.552,11.662,10.534,13.313
	c3.674,1.523,9.792-0.16,16.27-1.942c5.834-1.605,11.864-3.265,18.174-3.265c6.311,0,12.341,1.659,18.174,3.265
	c6.476,1.781,12.597,3.464,16.27,1.942c3.982-1.651,7.164-7.316,10.534-13.313c2.888-5.139,5.873-10.454,10.145-14.725
	c4.273-4.272,9.587-7.258,14.726-10.145c5.997-3.369,11.662-6.552,13.313-10.532c1.523-3.675-0.16-9.794-1.942-16.27
	c-1.605-5.834-3.265-11.864-3.265-18.174c0-6.31,1.659-12.342,3.265-18.174c1.782-6.477,3.465-12.596,1.942-16.27
	c-1.651-3.98-7.316-7.163-13.313-10.532c-5.139-2.887-10.454-5.873-14.725-10.145c-4.273-4.272-7.258-9.587-10.147-14.727
	c-3.369-5.997-6.551-11.661-10.532-13.312c-3.672-1.526-9.795,0.159-16.27,1.941c-5.834,1.605-11.863,3.265-18.175,3.265
	c-6.31,0-12.341-1.659-18.174-3.265C233.124,265.269,228.609,264.026,225.082,264.026z"/>
<g>
	<path style="fill:#4D4D4D;" d="M234.112,381.704c-3.079,0-6.16-1.174-8.508-3.524c-4.699-4.699-4.699-12.318,0-17.017
		l43.774-43.776c4.699-4.699,12.318-4.699,17.018,0c4.699,4.699,4.699,12.318,0,17.017l-43.774,43.776
		C240.27,380.53,237.191,381.704,234.112,381.704z"/>
	<circle style="fill:#4D4D4D;" cx="277.888" cy="369.675" r="12.033"/>
	<circle style="fill:#4D4D4D;" cx="234.113" cy="325.899" r="12.033"/>
</g>
<path style="fill:#F95428;" d="M439.034,132.488H72.967c-9.282,0-16.806-7.524-16.806-16.806V16.806C56.161,7.524,63.685,0,72.967,0
	h366.066c9.282,0,16.806,7.524,16.806,16.806v98.876C455.841,124.964,448.316,132.488,439.034,132.488z"/>
<g>
	<circle style="fill:#666666;" cx="175.777" cy="66.241" r="22.863"/>
	<circle style="fill:#666666;" cx="336.224" cy="66.241" r="22.863"/>
</g>
</svg>